<svg version="1.1" id="Layer_1" xmlns="http://www.w3.org/2000/svg" xmlns:xlink="http://www.w3.org/1999/xlink" x="0px" y="0px"
	 width="100%" viewBox="0 0 584 124" enable-background="new 0 0 584 124" xml:space="preserve">
<path fill="#FFFFFF" opacity="1.000000" stroke="none" 
	d="
M394.000000,125.000000 
	C262.666656,125.000000 131.833328,125.000000 1.000000,125.000000 
	C1.000000,83.666664 1.000000,42.333332 1.000000,1.000000 
	C195.666672,1.000000 390.333344,1.000000 585.000000,1.000000 
	C585.000000,42.333332 585.000000,83.666664 585.000000,125.000000 
	C521.500000,125.000000 458.000000,125.000000 394.000000,125.000000 
M466.985535,97.879280 
	C466.520844,101.490364 467.418640,105.071991 471.097351,105.723419 
	C473.830536,106.207413 476.949463,104.513031 480.175201,103.720474 
	C480.972015,106.386131 484.167145,106.587517 487.309692,105.689323 
	C488.460602,105.360382 490.049988,103.011818 489.777710,102.059921 
	C489.329041,100.491508 487.528503,99.309814 486.536072,98.225426 
	C486.890747,97.470642 487.566498,96.032616 488.521545,94.000252 
	C482.487915,94.000252 477.665192,93.843773 472.862732,94.087021 
	C471.231110,94.169670 469.650513,95.260208 467.974579,95.110085 
	C464.702698,94.687897 461.430786,94.265717 458.473358,93.884109 
	C459.454132,97.888451 460.029724,101.143524 461.133881,104.208153 
	C461.475647,105.156746 463.254852,105.587425 463.903717,105.973946 
	C465.129150,102.321274 466.012939,99.686897 466.985535,97.879280 
M167.500000,10.000000 
	C132.413391,10.000000 97.326767,10.000000 60.843853,10.000000 
	C62.185329,15.234523 62.349857,20.171366 64.645546,23.735518 
	C67.447006,28.084904 71.917412,31.417562 75.884628,34.944012 
	C81.645615,40.064938 87.840996,44.716099 93.403763,50.035431 
	C98.324722,54.741051 96.482018,61.092915 89.882156,61.861496 
	C81.874382,62.794033 73.745872,62.775627 65.664818,62.965775 
	C59.257336,63.116547 54.579327,59.695858 53.294674,53.566612 
	C51.905750,46.939880 51.258465,40.158115 49.883343,33.527832 
	C49.483715,31.601002 48.031185,29.406511 46.403866,28.427380 
	C45.601929,27.944864 43.209930,29.819853 41.699005,30.862246 
	C38.857380,32.822697 35.974556,34.775379 33.406525,37.065128 
	C31.067085,39.151058 27.836107,41.421211 27.303684,44.073067 
	C26.498253,48.084698 27.676723,52.499531 28.065376,56.738155 
	C28.102634,57.144516 28.440723,57.599895 28.765871,57.890980 
	C31.108709,59.988350 33.484253,62.049191 36.331806,64.544296 
	C38.274239,63.469028 41.030090,61.943485 45.272835,59.594849 
	C44.489540,62.450115 44.413307,64.481018 43.449066,65.914680 
	C40.539688,70.240456 37.115688,74.220474 34.212746,78.550140 
	C31.290800,82.908142 32.024796,87.054611 36.468212,89.670921 
	C40.068443,91.790764 40.412827,93.896523 39.225483,97.762268 
	C37.406059,103.685966 36.601505,109.921387 35.366211,116.024498 
	C38.103065,112.001137 39.492016,107.640335 41.768429,103.806473 
	C45.287701,97.879417 46.708389,91.684471 47.214733,84.841568 
	C47.583942,79.852005 49.271332,74.673149 51.565689,70.190056 
	C54.077866,65.281319 59.335697,65.688194 60.676880,70.795486 
	C61.742172,74.852135 60.900654,79.393929 61.029049,83.716660 
	C61.152637,87.877419 59.319996,90.462204 55.105526,90.296631 
	C53.164478,90.220375 51.276554,88.791893 49.322514,87.958641 
	C41.235367,107.373428 47.651981,111.316071 64.911377,117.948105 
	C63.936840,116.230286 61.796024,115.536026 60.700783,114.063896 
	C55.488197,107.057526 54.384861,107.314888 58.285416,98.312180 
	C60.218063,93.851517 62.703953,89.498344 63.749794,84.829994 
	C64.505424,81.457054 65.832710,80.936646 68.688614,80.963570 
	C78.683601,81.057838 88.683243,81.158234 98.674965,80.954620 
	C108.300835,80.758476 115.934006,76.704086 120.482384,67.972923 
	C124.983513,59.332462 123.993347,50.726639 118.417320,43.082321 
	C114.462448,37.660511 109.431419,33.023685 104.644920,27.778034 
	C136.765060,27.778034 168.694519,27.778034 200.702026,27.778034 
	C200.702026,21.750528 200.702026,16.025267 200.702026,10.000000 
	C189.771027,10.000000 179.135513,10.000000 167.500000,10.000000 
M522.268433,80.992340 
	C523.356689,80.665665 524.425842,80.239128 525.536072,80.027687 
	C537.103333,77.824554 547.101929,72.798134 554.230530,63.206562 
	C564.467102,49.433212 562.547546,34.918266 550.599670,23.357304 
	C540.796387,13.871450 528.119324,9.848078 514.620117,9.058115 
	C499.482056,8.172252 485.544281,11.813138 473.146240,20.936016 
	C463.850281,27.776255 458.965332,39.362156 460.167755,47.966541 
	C461.917664,60.488895 469.550568,69.140076 480.524475,74.788620 
	C493.389801,81.410744 507.061737,83.526939 522.268433,80.992340 
M320.000000,20.523376 
	C320.000000,17.093134 320.000000,13.662892 320.000000,10.349005 
	C310.300171,10.349005 301.245544,10.349005 292.000000,10.349005 
	C292.000000,26.830740 292.126923,42.965584 291.962952,59.097469 
	C291.810608,74.089104 300.953033,80.436119 313.948395,80.854782 
	C331.907593,81.433365 349.901489,80.852821 367.875824,81.103836 
	C372.345856,81.166260 373.096619,79.434456 373.068634,75.533600 
	C372.921753,55.059875 373.004486,34.584530 372.988831,14.109762 
	C372.987854,12.835988 372.828339,11.562335 372.744720,10.320857 
	C363.023956,10.320857 353.637573,10.320857 343.791382,10.320857 
	C343.791382,28.021198 343.791382,45.405014 343.791382,63.000000 
	C339.679474,63.000000 336.021088,62.809322 332.389130,63.038326 
	C323.935974,63.571331 319.939148,58.838043 319.987122,50.482521 
	C320.042542,40.828064 320.000000,31.173044 320.000000,20.523376 
M243.943649,55.003151 
	C249.481216,56.669216 251.909698,56.675953 251.992264,65.657112 
	C252.035904,70.405319 252.000000,75.154251 252.000000,79.761253 
	C262.041107,79.761253 271.311676,79.761253 280.992340,79.761253 
	C280.420532,66.953827 284.529877,52.995636 269.582581,45.601860 
	C271.732483,44.560993 274.195007,43.889957 275.984314,42.406746 
	C281.818512,37.570557 284.063538,29.016087 281.662567,22.194168 
	C278.884308,14.300275 272.880737,10.063536 264.134949,10.015041 
	C252.978851,9.953183 241.822128,10.000013 230.665680,10.000002 
	C224.559784,9.999995 218.453888,10.000000 212.303513,10.000000 
	C212.303513,16.265026 212.303513,21.988522 212.303513,28.000032 
	C224.735062,28.000032 236.865875,27.942572 248.994812,28.067863 
	C250.635101,28.084806 252.822525,28.553595 253.746811,29.658152 
	C254.698944,30.796017 255.184647,33.466415 254.475784,34.557911 
	C253.622299,35.872089 251.304184,36.870987 249.603104,36.897091 
	C237.178619,37.087727 224.749863,36.999786 212.318954,36.999786 
	C212.318954,43.297405 212.318954,49.022171 212.318954,55.000324 
	C222.772186,55.000324 232.908417,55.000324 243.943649,55.003151 
M187.491669,55.000000 
	C191.915710,55.000000 196.339737,55.000000 200.643433,55.000000 
	C200.643433,48.620419 200.643433,42.894863 200.643433,37.365234 
	C177.578308,37.365234 154.871307,37.365234 132.385437,37.365234 
	C132.385437,52.115685 132.385437,66.498512 132.385437,80.782455 
	C155.360001,80.782455 177.948547,80.782455 200.750351,80.782455 
	C200.750351,74.842705 200.750351,69.121262 200.750351,62.934570 
	C187.449005,62.934570 174.389130,62.934570 161.302383,62.934570 
	C161.302383,60.069233 161.302383,57.677967 161.302383,55.000000 
	C169.899612,55.000000 178.197311,55.000000 187.491669,55.000000 
M419.548523,55.000000 
	C429.632568,55.000000 439.716644,55.000000 449.621826,55.000000 
	C449.621826,48.580200 449.621826,42.851231 449.621826,37.223682 
	C426.979034,37.223682 404.715057,37.223682 382.252563,37.223682 
	C382.252563,51.500473 382.252563,65.553017 382.252563,79.714783 
	C391.896027,79.714783 401.284851,79.714783 411.154175,79.714783 
	C411.154175,71.373795 411.154175,63.307411 411.154175,55.000000 
	C413.943390,55.000000 416.255219,55.000000 419.548523,55.000000 
M394.510803,10.000000 
	C390.422058,10.000000 386.333282,10.000000 382.341553,10.000000 
	C382.341553,16.359678 382.341553,22.078981 382.341553,28.000000 
	C393.803406,28.000000 404.925049,28.000000 416.046692,28.000000 
	C427.280396,28.000000 438.514099,28.000000 449.658508,28.000000 
	C449.658508,21.640369 449.658508,15.921073 449.658508,10.000000 
	C431.381317,10.000000 413.444824,10.000000 394.510803,10.000000 
M270.888062,104.692795 
	C274.947388,107.118889 285.006409,106.405106 286.103882,104.441475 
	C287.614746,105.073891 288.999939,105.653717 290.999969,106.490898 
	C290.999969,103.321701 291.016388,101.175201 290.996704,99.029037 
	C290.949554,93.886795 288.518311,92.508156 283.713043,94.780731 
	C282.862671,95.182907 281.757996,95.401848 280.845367,95.251755 
	C278.063141,94.794205 275.317413,94.115021 272.195557,93.444351 
	C272.047882,96.100876 271.952332,97.819847 271.856201,99.549011 
	C270.222565,99.209496 268.834564,98.921021 268.405243,98.831795 
	C269.037598,97.424339 269.658112,96.043190 270.778961,93.548485 
	C267.546997,94.098381 265.680420,94.431145 263.808258,94.728783 
	C262.697266,94.905418 261.377533,95.482124 260.495697,95.095100 
	C256.377197,93.287552 252.616760,93.161667 250.426208,95.619659 
	C248.233826,94.887817 246.869690,93.981239 245.580383,94.077446 
	C238.722260,94.589249 231.875320,94.672897 225.039886,93.971817 
	C221.347748,93.593132 220.491837,96.102234 220.083481,98.748100 
	C219.736786,100.994560 220.011963,103.336990 220.011963,107.058258 
	C221.914230,105.715736 223.194427,105.147766 223.970322,104.176788 
	C224.869980,103.050941 225.374344,101.591690 225.958603,100.237610 
	C226.339600,99.354599 226.557343,98.401131 226.848206,97.479225 
	C227.950653,98.320816 228.016556,98.820206 227.991669,99.315041 
	C227.787430,103.378120 229.278366,105.812912 233.745651,106.045425 
	C238.099319,106.272026 240.367981,104.779907 240.093735,100.110374 
	C240.047684,99.326149 241.147156,98.474663 241.717316,97.654259 
	C242.051361,97.810463 242.385406,97.966675 242.719437,98.122879 
	C242.906357,100.692642 243.093262,103.262413 243.286392,105.917755 
	C250.412796,106.418266 244.549973,99.440376 246.730988,98.619072 
	C249.681702,101.433777 251.716507,104.524376 254.561798,105.783569 
	C257.762787,107.200180 260.723969,105.398796 261.479736,100.901054 
	C262.953644,106.481514 266.107513,107.025856 270.888062,104.692795 
M538.498840,104.013885 
	C538.667236,102.010750 538.835693,100.007622 539.004089,98.004494 
	C539.580872,98.072800 540.157715,98.141106 540.734497,98.209412 
	C540.916199,100.759361 541.097900,103.309311 541.279602,105.859261 
	C541.745728,106.096397 542.211792,106.333534 542.677917,106.570679 
	C543.451294,105.485947 544.427612,104.486176 544.929504,103.287727 
	C545.286011,102.436394 544.843445,101.281952 545.053894,100.328224 
	C545.231262,99.524658 545.835693,98.815353 546.250977,98.064285 
	C546.832397,98.814354 547.794800,99.507843 547.916321,100.326210 
	C548.174438,102.064911 547.995117,103.868568 547.995117,105.709854 
	C551.256104,105.709854 553.990051,105.709854 556.691650,105.709854 
	C557.571472,95.266815 557.445312,95.111267 547.991516,94.435829 
	C547.681641,94.413689 547.385681,94.095566 547.082581,94.094490 
	C541.134766,94.073318 535.186890,94.078751 529.353516,94.078751 
	C529.353516,98.387398 529.353516,102.120567 529.353516,106.628532 
	C532.852478,105.947556 535.877258,105.358856 538.498840,104.013885 
M83.571762,104.370972 
	C84.290619,104.909698 84.998116,105.896790 85.730164,105.915359 
	C91.011978,106.049294 96.298775,105.987144 101.984871,105.987144 
	C101.984871,102.930191 102.322891,100.247383 101.849541,97.716316 
	C101.593300,96.346191 100.000389,94.221733 98.929207,94.171524 
	C92.049507,93.849106 85.147308,94.006866 78.281456,94.006866 
	C78.281456,98.337509 78.281456,102.089348 78.281456,106.474678 
	C80.134583,105.889427 81.578896,105.433289 83.571762,104.370972 
M203.356201,105.983139 
	C203.903961,103.358749 204.683609,100.753052 204.897308,98.101738 
	C204.997528,96.858475 204.137436,94.510834 203.485428,94.426834 
	C201.544022,94.176743 199.453308,94.657982 197.500732,95.162384 
	C196.848206,95.330940 196.436310,96.431076 195.914429,97.105370 
	C195.887650,96.610321 195.860855,96.115265 195.834076,95.620209 
	C192.089996,94.915085 188.345917,94.209961 184.240845,93.436852 
	C184.240845,98.184059 184.240845,101.902550 184.240845,106.597916 
	C188.416550,105.791878 192.179810,105.065453 195.900970,104.347153 
	C196.605438,108.110649 200.226990,105.163666 203.356201,105.983139 
M345.226654,105.695786 
	C346.999512,105.799049 348.772400,105.902313 350.780579,106.019287 
	C350.780579,101.884712 350.780579,98.125755 350.780579,94.040276 
	C347.084259,94.040276 343.584503,94.040268 340.084778,94.040268 
	C336.457947,94.040268 332.831085,94.040276 329.195679,94.040276 
	C329.195679,98.311546 329.195679,101.925545 329.195679,105.598000 
	C330.899414,105.598000 332.398041,105.598000 334.204041,105.598000 
	C334.204041,103.021507 334.204041,100.839226 334.204041,97.508080 
	C335.921387,101.355774 337.147400,104.102600 338.657227,107.485336 
	C340.109009,104.123772 341.324829,101.308563 342.389771,98.842651 
	C343.120331,100.866478 343.881042,102.973854 345.226654,105.695786 
M381.999969,101.643616 
	C382.093109,103.054039 382.186279,104.464470 382.261963,105.610542 
	C385.467743,105.610542 388.185425,105.610542 391.000000,105.610542 
	C391.000000,103.233337 391.233337,101.209038 390.931335,99.268059 
	C390.655151,97.493118 390.037415,94.502434 389.153137,94.341690 
	C386.968750,93.944595 384.545288,94.862686 382.127197,95.267342 
	C378.599701,92.239540 373.776947,94.849510 369.238586,93.887367 
	C369.238586,98.218483 369.238586,101.949539 369.238586,105.604866 
	C372.559174,106.801308 373.116425,105.266769 373.066315,102.565849 
	C373.037140,100.993187 373.674530,99.408165 374.011993,97.828705 
	C374.580231,97.940651 375.148499,98.052605 375.716736,98.164558 
	C375.905609,100.724434 376.094452,103.284302 376.288879,105.919731 
	C383.397461,106.421463 377.572510,99.470963 381.513580,97.959000 
	C381.691925,98.978676 381.845428,99.856178 381.999969,101.643616 
M157.892029,105.594421 
	C158.846039,101.887070 159.800049,98.179710 160.754059,94.472359 
	C160.215576,94.171982 159.677078,93.871613 159.138596,93.571236 
	C156.594269,95.638527 152.314728,91.272224 150.963745,95.241310 
	C147.763123,94.687431 144.681442,94.154137 141.239227,93.558449 
	C141.239227,98.140419 141.239227,101.870987 141.239227,105.766754 
	C146.691254,105.826370 151.908112,105.883415 157.892029,105.594421 
M524.590637,94.001801 
	C519.480103,94.155518 514.369629,94.309227 509.250427,94.463203 
	C509.250427,98.299522 509.250427,102.057999 509.250427,106.905411 
	C511.262482,105.630058 512.600281,104.782074 512.776794,104.670197 
	C514.929077,105.218735 516.469849,105.950790 517.992249,105.914276 
	C519.933228,105.867722 521.859314,105.199844 523.850037,104.787727 
	C524.647827,105.101677 526.038574,105.648964 527.999512,106.420631 
	C527.999512,102.948334 528.296448,100.421944 527.887451,98.015533 
	C527.644104,96.583702 526.290527,95.340561 524.590637,94.001801 
M321.023621,105.996819 
	C323.272339,105.996819 325.521057,105.996819 327.997192,105.996819 
	C327.997192,102.718391 328.270935,100.039032 327.879089,97.460831 
	C327.689514,96.213493 326.310486,94.228867 325.366638,94.167480 
	C320.320648,93.839256 315.242004,94.012711 310.000000,94.012711 
	C310.000000,96.686600 309.778320,98.698875 310.064789,100.636002 
	C310.330811,102.434784 310.985779,105.563393 311.737030,105.645035 
	C314.065033,105.898079 316.520508,104.978836 319.035828,104.493500 
	C319.110291,104.589668 319.645569,105.280945 321.023621,105.996819 
M429.664673,105.794724 
	C430.551514,105.480736 431.484253,104.813606 432.316223,104.921753 
	C434.451813,105.199364 436.542633,105.821121 438.664612,106.308342 
	C438.664612,101.814926 438.664612,98.091072 438.664612,92.991241 
	C435.871277,94.286148 433.492706,95.227448 431.284088,96.470688 
	C429.868195,97.267685 428.702942,98.509918 427.055939,99.854034 
	C428.072479,97.403519 428.652924,96.004288 429.341888,94.343391 
	C421.734192,93.752670 419.345245,96.565125 421.222443,102.575310 
	C422.522034,106.736122 425.772278,106.076683 429.664673,105.794724 
M177.699554,105.971535 
	C178.132919,103.413322 178.617111,100.862442 178.987579,98.295158 
	C179.525925,94.564308 177.283920,93.124405 174.284378,94.144188 
	C171.288818,95.162628 168.759705,94.762718 165.887619,94.083633 
	C162.414993,93.262558 160.559296,94.786804 160.957397,98.661591 
	C161.191315,100.938461 161.000092,103.259018 161.000092,107.083900 
	C164.468811,104.435394 167.025238,102.483452 170.130493,100.112457 
	C170.130493,102.443336 170.130493,104.055466 170.130493,106.781372 
	C172.211777,105.643936 173.584351,104.893814 174.806549,104.225868 
	C175.149918,104.522736 175.998840,105.256721 177.699554,105.971535 
M507.963348,98.077553 
	C506.748566,96.721565 505.630219,94.318130 504.301849,94.195824 
	C499.273651,93.732880 494.177338,94.009605 488.729919,94.009605 
	C490.045441,96.930481 491.485992,99.012878 491.898193,101.282082 
	C492.697113,105.680222 492.457397,105.723763 495.282837,105.550720 
	C496.090942,102.382568 496.875793,99.305611 497.660614,96.228653 
	C498.171478,96.331955 498.682312,96.435257 499.193176,96.538567 
	C499.193176,99.604584 499.193176,102.670601 499.193176,105.684830 
	C502.334778,105.684830 505.060577,105.684830 507.995361,105.684830 
	C507.995361,103.231461 507.995361,101.091866 507.963348,98.077553 
M352.085663,94.873627 
	C352.085663,98.492966 352.085663,102.112312 352.085663,105.998779 
	C356.044250,105.998779 359.749420,106.306061 363.359161,105.853065 
	C364.881042,105.662079 367.114380,104.080696 367.423157,102.757675 
	C368.057861,100.037918 367.613892,97.066429 367.613892,94.296524 
	C362.520630,92.957680 361.610901,95.546265 361.962463,99.601791 
	C362.049652,100.607346 361.497040,101.668381 361.238525,102.703911 
	C361.349152,95.344330 360.682922,94.116669 355.600586,94.010277 
	C354.611176,93.989555 353.619110,94.095192 352.085663,94.873627 
M294.250366,105.988281 
	C295.370117,103.593269 296.489868,101.198250 297.609589,98.803230 
	C297.260071,98.617821 296.910522,98.432411 296.560974,98.247002 
	C297.652039,97.996269 298.743103,97.745544 299.844910,97.492348 
	C300.242493,105.947395 300.242493,105.947395 303.623322,105.319221 
	C303.623322,101.558189 303.623322,97.836090 303.623322,92.948036 
	C299.500549,94.083603 294.930481,94.064308 292.883026,96.327354 
	C291.357880,98.013069 293.097137,102.652229 294.250366,105.988281 
M211.512909,94.001549 
	C205.856339,93.171860 205.028915,97.735863 206.636246,105.657547 
	C209.382950,105.657547 212.096771,105.657547 214.999405,105.657547 
	C214.999405,102.850716 215.301834,100.332329 214.884796,97.939339 
	C214.638748,96.527321 213.253006,95.313911 211.512909,94.001549 
M403.000000,100.723969 
	C403.000000,102.328949 403.000000,103.933929 403.000000,105.619019 
	C406.237793,105.619019 409.058075,105.619019 412.746246,105.619019 
	C410.104889,101.697342 415.585571,95.925476 408.801483,94.109955 
	C404.460724,92.948303 403.196899,96.146523 403.000000,100.723969 
M128.071548,94.052803 
	C121.265747,93.985481 120.771294,95.019585 122.543388,105.737320 
	C125.244591,105.737320 127.954514,105.737320 131.973618,105.737320 
	C130.836090,101.588989 129.847824,97.985016 128.071548,94.052803 
M68.290131,102.772476 
	C69.349106,106.317482 73.699799,107.222542 74.666107,105.724823 
	C76.667191,102.623245 76.826561,98.333420 77.800705,94.294037 
	C73.681442,94.294037 70.970505,94.294037 68.037407,94.294037 
	C68.037407,97.032310 68.037407,99.478745 68.290131,102.772476 
M442.100189,105.991547 
	C444.373474,105.875549 446.646759,105.759560 449.143494,105.632164 
	C448.718658,103.870918 448.023132,102.455627 448.106445,101.087776 
	C448.552307,93.768936 448.244202,93.444633 439.509216,94.527931 
	C440.088104,98.357193 440.663300,102.162125 442.100189,105.991547 
M120.989639,95.817810 
	C119.282394,92.425331 115.602318,93.385567 114.890404,95.068413 
	C113.714516,97.848045 113.920364,101.527863 114.600136,104.594162 
	C114.818314,105.578300 118.370720,105.823250 120.998726,106.579300 
	C120.998726,102.625275 120.998726,99.682198 120.989639,95.817810 
M418.482849,94.020050 
	C413.411713,94.127586 412.812592,95.052925 412.962952,101.122017 
	C413.080536,105.871246 415.860260,106.344719 420.201447,105.736794 
	C419.928070,101.836800 419.658478,97.990669 418.482849,94.020050 
M106.120743,105.404182 
	C112.831528,106.687241 113.885254,104.816666 112.412224,94.240425 
	C109.274796,93.330933 107.395325,94.322128 106.997498,97.722862 
	C106.728928,100.018745 106.348358,102.301529 106.120743,105.404182 
M395.668030,94.008980 
	C389.856140,96.610886 395.595703,102.355385 392.076172,105.899139 
	C394.440277,105.785881 397.373413,105.375618 397.559021,104.427505 
	C398.215668,101.073158 397.935211,97.534882 397.944092,94.066147 
	C397.944153,94.046165 397.008362,94.023781 395.668030,94.008980 
M135.989700,104.182961 
	C135.989700,100.912086 135.989700,97.641212 135.989700,94.396393 
	C131.430939,94.282990 131.025192,95.761421 132.550537,106.205032 
	C133.725800,105.822044 134.820465,105.465332 135.989700,104.182961 
M453.998657,96.737915 
	C453.118835,95.686630 452.239014,94.635345 451.359161,93.584061 
	C450.906128,93.877098 450.453064,94.170143 450.000000,94.463181 
	C450.000000,96.248672 450.000000,98.034172 450.000000,99.819664 
	C450.000000,101.762413 450.000000,103.705162 450.000000,105.647911 
	C450.501465,105.916092 451.002899,106.184265 451.504364,106.452446 
	C452.335815,105.343445 453.596436,104.337898 453.894745,103.100372 
	C454.308502,101.383827 453.999481,99.493050 453.998657,96.737915 
M65.484291,120.863167 
	C65.804054,120.610909 66.123817,120.358643 66.443588,120.106384 
	C65.984535,120.153511 65.525482,120.200638 65.484291,120.863167 
z"/>
<path fill="#FF6900" opacity="1.000000" stroke="none" 
	d="
M168.000000,10.000000 
	C179.135513,10.000000 189.771027,10.000000 200.702026,10.000000 
	C200.702026,16.025267 200.702026,21.750528 200.702026,27.778034 
	C168.694519,27.778034 136.765060,27.778034 104.644920,27.778034 
	C109.431419,33.023685 114.462448,37.660511 118.417320,43.082321 
	C123.993347,50.726639 124.983513,59.332462 120.482384,67.972923 
	C115.934006,76.704086 108.300835,80.758476 98.674965,80.954620 
	C88.683243,81.158234 78.683601,81.057838 68.688614,80.963570 
	C65.832710,80.936646 64.505424,81.457054 63.749794,84.829994 
	C62.703953,89.498344 60.218063,93.851517 58.285416,98.312180 
	C54.384861,107.314888 55.488197,107.057526 60.700783,114.063896 
	C61.796024,115.536026 63.936840,116.230286 64.911377,117.948105 
	C47.651981,111.316071 41.235367,107.373428 49.322514,87.958641 
	C51.276554,88.791893 53.164478,90.220375 55.105526,90.296631 
	C59.319996,90.462204 61.152637,87.877419 61.029049,83.716660 
	C60.900654,79.393929 61.742172,74.852135 60.676880,70.795486 
	C59.335697,65.688194 54.077866,65.281319 51.565689,70.190056 
	C49.271332,74.673149 47.583942,79.852005 47.214733,84.841568 
	C46.708389,91.684471 45.287701,97.879417 41.768429,103.806473 
	C39.492016,107.640335 38.103065,112.001137 35.366211,116.024498 
	C36.601505,109.921387 37.406059,103.685966 39.225483,97.762268 
	C40.412827,93.896523 40.068443,91.790764 36.468212,89.670921 
	C32.024796,87.054611 31.290800,82.908142 34.212746,78.550140 
	C37.115688,74.220474 40.539688,70.240456 43.449066,65.914680 
	C44.413307,64.481018 44.489540,62.450115 45.272835,59.594849 
	C41.030090,61.943485 38.274239,63.469028 36.331806,64.544296 
	C33.484253,62.049191 31.108709,59.988350 28.765871,57.890980 
	C28.440723,57.599895 28.102634,57.144516 28.065376,56.738155 
	C27.676723,52.499531 26.498253,48.084698 27.303684,44.073067 
	C27.836107,41.421211 31.067085,39.151058 33.406525,37.065128 
	C35.974556,34.775379 38.857380,32.822697 41.699005,30.862246 
	C43.209930,29.819853 45.601929,27.944864 46.403866,28.427380 
	C48.031185,29.406511 49.483715,31.601002 49.883343,33.527832 
	C51.258465,40.158115 51.905750,46.939880 53.294674,53.566612 
	C54.579327,59.695858 59.257336,63.116547 65.664818,62.965775 
	C73.745872,62.775627 81.874382,62.794033 89.882156,61.861496 
	C96.482018,61.092915 98.324722,54.741051 93.403763,50.035431 
	C87.840996,44.716099 81.645615,40.064938 75.884628,34.944012 
	C71.917412,31.417562 67.447006,28.084904 64.645546,23.735518 
	C62.349857,20.171366 62.185329,15.234523 60.843853,10.000000 
	C97.326767,10.000000 132.413391,10.000000 168.000000,10.000000 
z"/>
<path fill="#FF6900" opacity="1.000000" stroke="none" 
	d="
M521.823608,80.995804 
	C507.061737,83.526939 493.389801,81.410744 480.524475,74.788620 
	C469.550568,69.140076 461.917664,60.488895 460.167755,47.966541 
	C458.965332,39.362156 463.850281,27.776255 473.146240,20.936016 
	C485.544281,11.813138 499.482056,8.172252 514.620117,9.058115 
	C528.119324,9.848078 540.796387,13.871450 550.599670,23.357304 
	C562.547546,34.918266 564.467102,49.433212 554.230530,63.206562 
	C547.101929,72.798134 537.103333,77.824554 525.536072,80.027687 
	C524.425842,80.239128 523.356689,80.665665 521.823608,80.995804 
M501.834412,29.027767 
	C500.531647,29.689554 499.190582,30.285976 497.932465,31.023916 
	C490.708527,35.261219 487.337799,46.019054 491.200653,52.517174 
	C498.147003,64.202370 512.230164,67.137070 523.738281,59.486454 
	C529.751099,55.489109 533.028809,48.715416 530.057495,40.054600 
	C526.560852,29.862625 514.926636,25.121252 501.834412,29.027767 
z"/>
<path fill="#FF6900" opacity="1.000000" stroke="none" 
	d="
M320.000000,21.020823 
	C320.000000,31.173044 320.042542,40.828064 319.987122,50.482521 
	C319.939148,58.838043 323.935974,63.571331 332.389130,63.038326 
	C336.021088,62.809322 339.679474,63.000000 343.791382,63.000000 
	C343.791382,45.405014 343.791382,28.021198 343.791382,10.320857 
	C353.637573,10.320857 363.023956,10.320857 372.744720,10.320857 
	C372.828339,11.562335 372.987854,12.835988 372.988831,14.109762 
	C373.004486,34.584530 372.921753,55.059875 373.068634,75.533600 
	C373.096619,79.434456 372.345856,81.166260 367.875824,81.103836 
	C349.901489,80.852821 331.907593,81.433365 313.948395,80.854782 
	C300.953033,80.436119 291.810608,74.089104 291.962952,59.097469 
	C292.126923,42.965584 292.000000,26.830740 292.000000,10.349005 
	C301.245544,10.349005 310.300171,10.349005 320.000000,10.349005 
	C320.000000,13.662892 320.000000,17.093134 320.000000,21.020823 
z"/>
<path fill="#FF6900" opacity="1.000000" stroke="none" 
	d="
M243.494141,55.001740 
	C232.908417,55.000324 222.772186,55.000324 212.318954,55.000324 
	C212.318954,49.022171 212.318954,43.297405 212.318954,36.999786 
	C224.749863,36.999786 237.178619,37.087727 249.603104,36.897091 
	C251.304184,36.870987 253.622299,35.872089 254.475784,34.557911 
	C255.184647,33.466415 254.698944,30.796017 253.746811,29.658152 
	C252.822525,28.553595 250.635101,28.084806 248.994812,28.067863 
	C236.865875,27.942572 224.735062,28.000032 212.303513,28.000032 
	C212.303513,21.988522 212.303513,16.265026 212.303513,10.000000 
	C218.453888,10.000000 224.559784,9.999995 230.665680,10.000002 
	C241.822128,10.000013 252.978851,9.953183 264.134949,10.015041 
	C272.880737,10.063536 278.884308,14.300275 281.662567,22.194168 
	C284.063538,29.016087 281.818512,37.570557 275.984314,42.406746 
	C274.195007,43.889957 271.732483,44.560993 269.582581,45.601860 
	C284.529877,52.995636 280.420532,66.953827 280.992340,79.761253 
	C271.311676,79.761253 262.041107,79.761253 252.000000,79.761253 
	C252.000000,75.154251 252.035904,70.405319 251.992264,65.657112 
	C251.909698,56.675953 249.481216,56.669216 243.494141,55.001740 
z"/>
<path fill="#FF6900" opacity="1.000000" stroke="none" 
	d="
M186.993347,55.000000 
	C178.197311,55.000000 169.899612,55.000000 161.302383,55.000000 
	C161.302383,57.677967 161.302383,60.069233 161.302383,62.934570 
	C174.389130,62.934570 187.449005,62.934570 200.750351,62.934570 
	C200.750351,69.121262 200.750351,74.842705 200.750351,80.782455 
	C177.948547,80.782455 155.360001,80.782455 132.385437,80.782455 
	C132.385437,66.498512 132.385437,52.115685 132.385437,37.365234 
	C154.871307,37.365234 177.578308,37.365234 200.643433,37.365234 
	C200.643433,42.894863 200.643433,48.620419 200.643433,55.000000 
	C196.339737,55.000000 191.915710,55.000000 186.993347,55.000000 
z"/>
<path fill="#FF6900" opacity="1.000000" stroke="none" 
	d="
M419.057800,55.000000 
	C416.255219,55.000000 413.943390,55.000000 411.154175,55.000000 
	C411.154175,63.307411 411.154175,71.373795 411.154175,79.714783 
	C401.284851,79.714783 391.896027,79.714783 382.252563,79.714783 
	C382.252563,65.553017 382.252563,51.500473 382.252563,37.223682 
	C404.715057,37.223682 426.979034,37.223682 449.621826,37.223682 
	C449.621826,42.851231 449.621826,48.580200 449.621826,55.000000 
	C439.716644,55.000000 429.632568,55.000000 419.057800,55.000000 
z"/>
<path fill="#FF6900" opacity="1.000000" stroke="none" 
	d="
M395.009552,10.000000 
	C413.444824,10.000000 431.381317,10.000000 449.658508,10.000000 
	C449.658508,15.921073 449.658508,21.640369 449.658508,28.000000 
	C438.514099,28.000000 427.280396,28.000000 416.046692,28.000000 
	C404.925049,28.000000 393.803406,28.000000 382.341553,28.000000 
	C382.341553,22.078981 382.341553,16.359678 382.341553,10.000000 
	C386.333282,10.000000 390.422058,10.000000 395.009552,10.000000 
z"/>
<path fill="#FF6900" opacity="1.000000" stroke="none" 
	d="
M270.578796,104.935181 
	C266.107513,107.025856 262.953644,106.481514 261.479736,100.901054 
	C260.723969,105.398796 257.762787,107.200180 254.561798,105.783569 
	C251.716507,104.524376 249.681702,101.433777 246.730988,98.619072 
	C244.549973,99.440376 250.412796,106.418266 243.286392,105.917755 
	C243.093262,103.262413 242.906357,100.692642 242.719437,98.122879 
	C242.385406,97.966675 242.051361,97.810463 241.717316,97.654259 
	C241.147156,98.474663 240.047684,99.326149 240.093735,100.110374 
	C240.367981,104.779907 238.099319,106.272026 233.745651,106.045425 
	C229.278366,105.812912 227.787430,103.378120 227.991669,99.315041 
	C228.016556,98.820206 227.950653,98.320816 226.848206,97.479225 
	C226.557343,98.401131 226.339600,99.354599 225.958603,100.237610 
	C225.374344,101.591690 224.869980,103.050941 223.970322,104.176788 
	C223.194427,105.147766 221.914230,105.715736 220.011963,107.058258 
	C220.011963,103.336990 219.736786,100.994560 220.083481,98.748100 
	C220.491837,96.102234 221.347748,93.593132 225.039886,93.971817 
	C231.875320,94.672897 238.722260,94.589249 245.580383,94.077446 
	C246.869690,93.981239 248.233826,94.887817 250.426208,95.619659 
	C252.616760,93.161667 256.377197,93.287552 260.495697,95.095100 
	C261.377533,95.482124 262.697266,94.905418 263.808258,94.728783 
	C265.680420,94.431145 267.546997,94.098381 270.778961,93.548485 
	C269.658112,96.043190 269.037598,97.424339 268.405243,98.831795 
	C268.834564,98.921021 270.222565,99.209496 271.856201,99.549011 
	C271.952332,97.819847 272.047882,96.100876 272.195557,93.444351 
	C275.317413,94.115021 278.063141,94.794205 280.845367,95.251755 
	C281.757996,95.401848 282.862671,95.182907 283.713043,94.780731 
	C288.518311,92.508156 290.949554,93.886795 290.996704,99.029037 
	C291.016388,101.175201 290.999969,103.321701 290.999969,106.490898 
	C288.999939,105.653717 287.614746,105.073891 286.103882,104.441475 
	C285.006409,106.405106 274.947388,107.118889 270.578796,104.935181 
z"/>
<path fill="#FF6900" opacity="1.000000" stroke="none" 
	d="
M538.700439,104.392014 
	C535.877258,105.358856 532.852478,105.947556 529.353516,106.628532 
	C529.353516,102.120567 529.353516,98.387398 529.353516,94.078751 
	C535.186890,94.078751 541.134766,94.073318 547.082581,94.094490 
	C547.385681,94.095566 547.681641,94.413689 547.991516,94.435829 
	C557.445312,95.111267 557.571472,95.266815 556.691650,105.709854 
	C553.990051,105.709854 551.256104,105.709854 547.995117,105.709854 
	C547.995117,103.868568 548.174438,102.064911 547.916321,100.326210 
	C547.794800,99.507843 546.832397,98.814354 546.250977,98.064301 
	C545.835693,98.815353 545.231262,99.524658 545.053894,100.328224 
	C544.843445,101.281952 545.286011,102.436394 544.929504,103.287727 
	C544.427612,104.486176 543.451294,105.485947 542.677917,106.570679 
	C542.211792,106.333534 541.745728,106.096397 541.279602,105.859261 
	C541.097900,103.309311 540.916199,100.759361 540.734497,98.209412 
	C540.157715,98.141106 539.580872,98.072800 539.004089,98.004494 
	C538.835693,100.007622 538.667236,102.010750 538.700439,104.392014 
z"/>
<path fill="#FF6900" opacity="1.000000" stroke="none" 
	d="
M83.297485,104.674057 
	C81.578896,105.433289 80.134583,105.889427 78.281456,106.474678 
	C78.281456,102.089348 78.281456,98.337509 78.281456,94.006866 
	C85.147308,94.006866 92.049507,93.849106 98.929207,94.171524 
	C100.000389,94.221733 101.593300,96.346191 101.849541,97.716316 
	C102.322891,100.247383 101.984871,102.930191 101.984871,105.987144 
	C96.298775,105.987144 91.011978,106.049294 85.730164,105.915359 
	C84.998116,105.896790 84.290619,104.909698 83.297485,104.674057 
z"/>
<path fill="#FF6900" opacity="1.000000" stroke="none" 
	d="
M202.900116,105.990456 
	C200.226990,105.163666 196.605438,108.110649 195.900970,104.347153 
	C192.179810,105.065453 188.416550,105.791878 184.240845,106.597916 
	C184.240845,101.902550 184.240845,98.184059 184.240845,93.436852 
	C188.345917,94.209961 192.089996,94.915085 195.834076,95.620209 
	C195.860855,96.115265 195.887650,96.610321 195.914429,97.105370 
	C196.436310,96.431076 196.848206,95.330940 197.500732,95.162384 
	C199.453308,94.657982 201.544022,94.176743 203.485428,94.426834 
	C204.137436,94.510834 204.997528,96.858475 204.897308,98.101738 
	C204.683609,100.753052 203.903961,103.358749 202.900116,105.990456 
z"/>
<path fill="#FF6900" opacity="1.000000" stroke="none" 
	d="
M468.046600,95.890182 
	C469.650513,95.260208 471.231110,94.169670 472.862732,94.087021 
	C477.665192,93.843773 482.487915,94.000252 488.521545,94.000252 
	C487.566498,96.032616 486.890747,97.470642 486.536072,98.225426 
	C487.528503,99.309814 489.329041,100.491508 489.777710,102.059921 
	C490.049988,103.011818 488.460602,105.360382 487.309692,105.689323 
	C484.167145,106.587517 480.972015,106.386131 480.175201,103.720474 
	C476.949463,104.513031 473.830536,106.207413 471.097351,105.723419 
	C467.418640,105.071991 466.520844,101.490364 467.190338,97.335190 
	C467.612274,96.490799 467.829437,96.190491 468.046600,95.890182 
z"/>
<path fill="#FF6900" opacity="1.000000" stroke="none" 
	d="
M344.934204,105.388504 
	C343.881042,102.973854 343.120331,100.866478 342.389771,98.842651 
	C341.324829,101.308563 340.109009,104.123772 338.657227,107.485336 
	C337.147400,104.102600 335.921387,101.355774 334.204041,97.508080 
	C334.204041,100.839226 334.204041,103.021507 334.204041,105.598000 
	C332.398041,105.598000 330.899414,105.598000 329.195679,105.598000 
	C329.195679,101.925545 329.195679,98.311546 329.195679,94.040276 
	C332.831085,94.040276 336.457947,94.040268 340.084778,94.040268 
	C343.584503,94.040268 347.084259,94.040276 350.780579,94.040276 
	C350.780579,98.125755 350.780579,101.884712 350.780579,106.019287 
	C348.772400,105.902313 346.999512,105.799049 344.934204,105.388504 
z"/>
<path fill="#FF6900" opacity="1.000000" stroke="none" 
	d="
M381.999451,101.188644 
	C381.845428,99.856178 381.691925,98.978676 381.513580,97.959000 
	C377.572510,99.470963 383.397461,106.421463 376.288879,105.919731 
	C376.094452,103.284302 375.905609,100.724434 375.716736,98.164558 
	C375.148499,98.052605 374.580231,97.940651 374.011993,97.828705 
	C373.674530,99.408165 373.037140,100.993187 373.066315,102.565849 
	C373.116425,105.266769 372.559174,106.801308 369.238586,105.604866 
	C369.238586,101.949539 369.238586,98.218483 369.238586,93.887367 
	C373.776947,94.849510 378.599701,92.239540 382.127197,95.267342 
	C384.545288,94.862686 386.968750,93.944595 389.153137,94.341690 
	C390.037415,94.502434 390.655151,97.493118 390.931335,99.268059 
	C391.233337,101.209038 391.000000,103.233337 391.000000,105.610542 
	C388.185425,105.610542 385.467743,105.610542 382.261963,105.610542 
	C382.186279,104.464470 382.093109,103.054039 381.999451,101.188644 
z"/>
<path fill="#FF6900" opacity="1.000000" stroke="none" 
	d="
M157.508514,105.767441 
	C151.908112,105.883415 146.691254,105.826370 141.239227,105.766754 
	C141.239227,101.870987 141.239227,98.140419 141.239227,93.558449 
	C144.681442,94.154137 147.763123,94.687431 150.963745,95.241310 
	C152.314728,91.272224 156.594269,95.638527 159.138596,93.571236 
	C159.677078,93.871613 160.215576,94.171982 160.754059,94.472359 
	C159.800049,98.179710 158.846039,101.887070 157.508514,105.767441 
z"/>
<path fill="#FF6900" opacity="1.000000" stroke="none" 
	d="
M525.013306,94.007202 
	C526.290527,95.340561 527.644104,96.583702 527.887451,98.015533 
	C528.296448,100.421944 527.999512,102.948334 527.999512,106.420631 
	C526.038574,105.648964 524.647827,105.101677 523.850037,104.787727 
	C521.859314,105.199844 519.933228,105.867722 517.992249,105.914276 
	C516.469849,105.950790 514.929077,105.218735 512.776794,104.670197 
	C512.600281,104.782074 511.262482,105.630058 509.250427,106.905411 
	C509.250427,102.057999 509.250427,98.299522 509.250427,94.463203 
	C514.369629,94.309227 519.480103,94.155518 525.013306,94.007202 
z"/>
<path fill="#FF6900" opacity="1.000000" stroke="none" 
	d="
M320.602234,105.984520 
	C319.645569,105.280945 319.110291,104.589668 319.035828,104.493500 
	C316.520508,104.978836 314.065033,105.898079 311.737030,105.645035 
	C310.985779,105.563393 310.330811,102.434784 310.064789,100.636002 
	C309.778320,98.698875 310.000000,96.686600 310.000000,94.012711 
	C315.242004,94.012711 320.320648,93.839256 325.366638,94.167480 
	C326.310486,94.228867 327.689514,96.213493 327.879089,97.460831 
	C328.270935,100.039032 327.997192,102.718391 327.997192,105.996819 
	C325.521057,105.996819 323.272339,105.996819 320.602234,105.984520 
z"/>
<path fill="#FF6900" opacity="1.000000" stroke="none" 
	d="
M429.265015,105.883926 
	C425.772278,106.076683 422.522034,106.736122 421.222443,102.575310 
	C419.345245,96.565125 421.734192,93.752670 429.341888,94.343391 
	C428.652924,96.004288 428.072479,97.403519 427.055939,99.854034 
	C428.702942,98.509918 429.868195,97.267685 431.284088,96.470688 
	C433.492706,95.227448 435.871277,94.286148 438.664612,92.991241 
	C438.664612,98.091072 438.664612,101.814926 438.664612,106.308342 
	C436.542633,105.821121 434.451813,105.199364 432.316223,104.921753 
	C431.484253,104.813606 430.551514,105.480736 429.265015,105.883926 
z"/>
<path fill="#FF6900" opacity="1.000000" stroke="none" 
	d="
M177.273666,105.981117 
	C175.998840,105.256721 175.149918,104.522736 174.806549,104.225868 
	C173.584351,104.893814 172.211777,105.643936 170.130493,106.781372 
	C170.130493,104.055466 170.130493,102.443336 170.130493,100.112457 
	C167.025238,102.483452 164.468811,104.435394 161.000092,107.083900 
	C161.000092,103.259018 161.191315,100.938461 160.957397,98.661591 
	C160.559296,94.786804 162.414993,93.262558 165.887619,94.083633 
	C168.759705,94.762718 171.288818,95.162628 174.284378,94.144188 
	C177.283920,93.124405 179.525925,94.564308 178.987579,98.295158 
	C178.617111,100.862442 178.132919,103.413322 177.273666,105.981117 
z"/>
<path fill="#FF6900" opacity="1.000000" stroke="none" 
	d="
M507.979370,98.514908 
	C507.995361,101.091866 507.995361,103.231461 507.995361,105.684830 
	C505.060577,105.684830 502.334778,105.684830 499.193176,105.684830 
	C499.193176,102.670601 499.193176,99.604584 499.193176,96.538567 
	C498.682312,96.435257 498.171478,96.331955 497.660614,96.228653 
	C496.875793,99.305611 496.090942,102.382568 495.282837,105.550720 
	C492.457397,105.723763 492.697113,105.680222 491.898193,101.282082 
	C491.485992,99.012878 490.045441,96.930481 488.729919,94.009605 
	C494.177338,94.009605 499.273651,93.732880 504.301849,94.195824 
	C505.630219,94.318130 506.748566,96.721565 507.979370,98.514908 
z"/>
<path fill="#FF6900" opacity="1.000000" stroke="none" 
	d="
M352.356964,94.508087 
	C353.619110,94.095192 354.611176,93.989555 355.600586,94.010277 
	C360.682922,94.116669 361.349152,95.344330 361.238525,102.703911 
	C361.497040,101.668381 362.049652,100.607346 361.962463,99.601791 
	C361.610901,95.546265 362.520630,92.957680 367.613892,94.296524 
	C367.613892,97.066429 368.057861,100.037918 367.423157,102.757675 
	C367.114380,104.080696 364.881042,105.662079 363.359161,105.853065 
	C359.749420,106.306061 356.044250,105.998779 352.085663,105.998779 
	C352.085663,102.112312 352.085663,98.492966 352.356964,94.508087 
z"/>
<path fill="#FF6900" opacity="1.000000" stroke="none" 
	d="
M293.816467,105.982162 
	C293.097137,102.652229 291.357880,98.013069 292.883026,96.327354 
	C294.930481,94.064308 299.500549,94.083603 303.623322,92.948036 
	C303.623322,97.836090 303.623322,101.558189 303.623322,105.319221 
	C300.242493,105.947395 300.242493,105.947395 299.844910,97.492348 
	C298.743103,97.745544 297.652039,97.996269 296.560974,98.247002 
	C296.910522,98.432411 297.260071,98.617821 297.609589,98.803230 
	C296.489868,101.198250 295.370117,103.593269 293.816467,105.982162 
z"/>
<path fill="#FF6900" opacity="1.000000" stroke="none" 
	d="
M211.946365,94.006363 
	C213.253006,95.313911 214.638748,96.527321 214.884796,97.939339 
	C215.301834,100.332329 214.999405,102.850716 214.999405,105.657547 
	C212.096771,105.657547 209.382950,105.657547 206.636246,105.657547 
	C205.028915,97.735863 205.856339,93.171860 211.946365,94.006363 
z"/>
<path fill="#FF6900" opacity="1.000000" stroke="none" 
	d="
M403.000244,100.280075 
	C403.196899,96.146523 404.460724,92.948303 408.801483,94.109955 
	C415.585571,95.925476 410.104889,101.697342 412.746246,105.619019 
	C409.058075,105.619019 406.237793,105.619019 403.000000,105.619019 
	C403.000000,103.933929 403.000000,102.328949 403.000244,100.280075 
z"/>
<path fill="#FF6900" opacity="1.000000" stroke="none" 
	d="
M128.465546,94.216919 
	C129.847824,97.985016 130.836090,101.588989 131.973618,105.737320 
	C127.954514,105.737320 125.244591,105.737320 122.543388,105.737320 
	C120.771294,95.019585 121.265747,93.985481 128.465546,94.216919 
z"/>
<path fill="#FF6900" opacity="1.000000" stroke="none" 
	d="
M68.163773,102.348831 
	C68.037407,99.478745 68.037407,97.032310 68.037407,94.294037 
	C70.970505,94.294037 73.681442,94.294037 77.800705,94.294037 
	C76.826561,98.333420 76.667191,102.623245 74.666107,105.724823 
	C73.699799,107.222542 69.349106,106.317482 68.163773,102.348831 
z"/>
<path fill="#FF6900" opacity="1.000000" stroke="none" 
	d="
M441.669342,105.979301 
	C440.663300,102.162125 440.088104,98.357193 439.509216,94.527931 
	C448.244202,93.444633 448.552307,93.768936 448.106445,101.087776 
	C448.023132,102.455627 448.718658,103.870918 449.143494,105.632164 
	C446.646759,105.759560 444.373474,105.875549 441.669342,105.979301 
z"/>
<path fill="#FF6900" opacity="1.000000" stroke="none" 
	d="
M120.994186,96.278458 
	C120.998726,99.682198 120.998726,102.625275 120.998726,106.579300 
	C118.370720,105.823250 114.818314,105.578300 114.600136,104.594162 
	C113.920364,101.527863 113.714516,97.848045 114.890404,95.068413 
	C115.602318,93.385567 119.282394,92.425331 120.994186,96.278458 
z"/>
<path fill="#FF6900" opacity="1.000000" stroke="none" 
	d="
M418.935852,94.082298 
	C419.658478,97.990669 419.928070,101.836800 420.201447,105.736794 
	C415.860260,106.344719 413.080536,105.871246 412.962952,101.122017 
	C412.812592,95.052925 413.411713,94.127586 418.935852,94.082298 
z"/>
<path fill="#FF6900" opacity="1.000000" stroke="none" 
	d="
M468.010590,95.500137 
	C467.829437,96.190491 467.612274,96.490799 467.145935,96.921814 
	C466.012939,99.686897 465.129150,102.321274 463.903717,105.973946 
	C463.254852,105.587425 461.475647,105.156746 461.133881,104.208153 
	C460.029724,101.143524 459.454132,97.888451 458.473358,93.884109 
	C461.430786,94.265717 464.702698,94.687897 468.010590,95.500137 
z"/>
<path fill="#FF6900" opacity="1.000000" stroke="none" 
	d="
M106.069313,104.997177 
	C106.348358,102.301529 106.728928,100.018745 106.997498,97.722862 
	C107.395325,94.322128 109.274796,93.330933 112.411499,94.239304 
	C113.885254,104.816666 112.831528,106.687241 106.069313,104.997177 
z"/>
<path fill="#FF6900" opacity="1.000000" stroke="none" 
	d="
M396.088806,94.005745 
	C397.008362,94.023781 397.944153,94.046165 397.944092,94.066147 
	C397.935211,97.534882 398.215668,101.073158 397.559021,104.427505 
	C397.373413,105.375618 394.440277,105.785881 392.076172,105.899139 
	C395.595703,102.355385 389.856140,96.610886 396.088806,94.005745 
z"/>
<path fill="#FF6900" opacity="1.000000" stroke="none" 
	d="
M135.952408,104.645782 
	C134.820465,105.465332 133.725800,105.822044 132.550537,106.205032 
	C131.025192,95.761421 131.430939,94.282990 135.989700,94.396393 
	C135.989700,97.641212 135.989700,100.912086 135.952408,104.645782 
z"/>
<path fill="#FF6900" opacity="1.000000" stroke="none" 
	d="
M453.999268,97.207390 
	C453.999481,99.493050 454.308502,101.383827 453.894745,103.100372 
	C453.596436,104.337898 452.335815,105.343445 451.504364,106.452446 
	C451.002899,106.184265 450.501465,105.916092 450.000000,105.647911 
	C450.000000,103.705162 450.000000,101.762413 450.000000,99.819664 
	C450.000000,98.034172 450.000000,96.248672 450.000000,94.463181 
	C450.453064,94.170143 450.906128,93.877098 451.359161,93.584061 
	C452.239014,94.635345 453.118835,95.686630 453.999268,97.207390 
z"/>
<path fill="#FF6900" opacity="1.000000" stroke="none" 
	d="
M65.275360,120.555466 
	C65.525482,120.200638 65.984535,120.153511 66.443588,120.106384 
	C66.123817,120.358643 65.804054,120.610909 65.275360,120.555466 
z"/>
<path fill="#FFFFFF" opacity="1.000000" stroke="none" 
	d="
M502.226501,28.938606 
	C514.926636,25.121252 526.560852,29.862625 530.057495,40.054600 
	C533.028809,48.715416 529.751099,55.489109 523.738281,59.486454 
	C512.230164,67.137070 498.147003,64.202370 491.200653,52.517174 
	C487.337799,46.019054 490.708527,35.261219 497.932465,31.023916 
	C499.190582,30.285976 500.531647,29.689554 502.226501,28.938606 
z"/>
</svg>